# xmcd
#
# Track frame offsets:
#	150
#	24342
#	58956
#	78448
#	149903
#	168787
#
# Disc length: 2571 seconds
#
# Revision: 1
# Processed by: cddbd v1.5.1PL0 Copyright (c) Steve Scherf et al.
# Submitted via: EasyCDDAExtractor 8.0.2.1
#
DISCID=4e0a0906
DTITLE=Black Sabbath - Hammersmith Odeon London 03-01-82 Disc 2
DYEAR=1982
DGENRE=Hard Rock
TTITLE0=Slipping Away (Inc. Drum solo)
TTITLE1=Iron Man
TTITLE2=Mob Rules
TTITLE3=Heaven And Hell (Inc. Jam and solos)
TTITLE4=Paranoid
TTITLE5=Children Of The Grave (begining with "Voodoo" tease)
EXTD=
EXTT0=
EXTT1=
EXTT2=
EXTT3=
EXTT4=
EXTT5=
PLAYORDER=
